<svg width="102" height="24" viewBox="0 0 102 24" fill="none" xmlns="http://www.w3.org/2000/svg">
<g filter="url(#filter0_d_1_65)">
<path d="M44.755 18L44.041 15.858H39.298L38.584 18H36.051L40.216 6.1H43.123L47.305 18H44.755ZM40.046 13.665H43.31L41.678 8.803L40.046 13.665ZM52.172 18.238C50.8914 18.238 49.8204 17.8073 48.959 16.946C48.109 16.0847 47.684 15.0193 47.684 13.75C47.684 12.4807 48.109 11.4153 48.959 10.554C49.8204 9.69267 50.8914 9.262 52.172 9.262C52.9994 9.262 53.753 9.46033 54.433 9.857C55.113 10.2537 55.6287 10.7863 55.98 11.455L54.093 12.56C53.923 12.2087 53.6624 11.931 53.311 11.727C52.971 11.523 52.5857 11.421 52.155 11.421C51.4977 11.421 50.9537 11.642 50.523 12.084C50.0924 12.5147 49.877 13.07 49.877 13.75C49.877 14.4187 50.0924 14.974 50.523 15.416C50.9537 15.8467 51.4977 16.062 52.155 16.062C52.597 16.062 52.988 15.9657 53.328 15.773C53.6794 15.569 53.94 15.2913 54.11 14.94L56.014 16.028C55.64 16.6967 55.113 17.235 54.433 17.643C53.753 18.0397 52.9994 18.238 52.172 18.238ZM61.0871 18.238C59.8064 18.238 58.7354 17.8073 57.8741 16.946C57.0241 16.0847 56.5991 15.0193 56.5991 13.75C56.5991 12.4807 57.0241 11.4153 57.8741 10.554C58.7354 9.69267 59.8064 9.262 61.0871 9.262C61.9144 9.262 62.6681 9.46033 63.3481 9.857C64.0281 10.2537 64.5438 10.7863 64.8951 11.455L63.0081 12.56C62.8381 12.2087 62.5774 11.931 62.2261 11.727C61.8861 11.523 61.5008 11.421 61.0701 11.421C60.4128 11.421 59.8688 11.642 59.4381 12.084C59.0074 12.5147 58.7921 13.07 58.7921 13.75C58.7921 14.4187 59.0074 14.974 59.4381 15.416C59.8688 15.8467 60.4128 16.062 61.0701 16.062C61.5121 16.062 61.9031 15.9657 62.2431 15.773C62.5944 15.569 62.8551 15.2913 63.0251 14.94L64.9291 16.028C64.5551 16.6967 64.0281 17.235 63.3481 17.643C62.6681 18.0397 61.9144 18.238 61.0871 18.238ZM73.1981 16.946C72.3255 17.8073 71.2601 18.238 70.0021 18.238C68.7441 18.238 67.6788 17.8073 66.8061 16.946C65.9448 16.0733 65.5141 15.008 65.5141 13.75C65.5141 12.492 65.9448 11.4323 66.8061 10.571C67.6788 9.69833 68.7441 9.262 70.0021 9.262C71.2601 9.262 72.3255 9.69833 73.1981 10.571C74.0708 11.4323 74.5071 12.492 74.5071 13.75C74.5071 15.008 74.0708 16.0733 73.1981 16.946ZM68.3531 15.433C68.7951 15.875 69.3448 16.096 70.0021 16.096C70.6595 16.096 71.2091 15.875 71.6511 15.433C72.0931 14.991 72.3141 14.43 72.3141 13.75C72.3141 13.07 72.0931 12.509 71.6511 12.067C71.2091 11.625 70.6595 11.404 70.0021 11.404C69.3448 11.404 68.7951 11.625 68.3531 12.067C67.9225 12.509 67.7071 13.07 67.7071 13.75C67.7071 14.43 67.9225 14.991 68.3531 15.433ZM81.6599 9.5H83.8529V18H81.6599V17.048C81.1272 17.8413 80.2829 18.238 79.1269 18.238C78.1975 18.238 77.4269 17.9263 76.8149 17.303C76.2142 16.6797 75.9139 15.8183 75.9139 14.719V9.5H78.1069V14.447C78.1069 15.0137 78.2599 15.45 78.5659 15.756C78.8719 16.0507 79.2799 16.198 79.7899 16.198C80.3565 16.198 80.8099 16.0223 81.1499 15.671C81.4899 15.3197 81.6599 14.7927 81.6599 14.09V9.5ZM90.5874 9.262C91.5167 9.262 92.2817 9.57367 92.8824 10.197C93.4944 10.8203 93.8004 11.6817 93.8004 12.781V18H91.6074V13.053C91.6074 12.4863 91.4544 12.0557 91.1484 11.761C90.8424 11.455 90.4344 11.302 89.9244 11.302C89.3577 11.302 88.9044 11.4777 88.5644 11.829C88.2244 12.1803 88.0544 12.7073 88.0544 13.41V18H85.8614V9.5H88.0544V10.452C88.5871 9.65867 89.4314 9.262 90.5874 9.262ZM100.535 11.608H98.6139V15.144C98.6139 15.4387 98.6876 15.654 98.8349 15.79C98.9823 15.926 99.1976 16.0053 99.4809 16.028C99.7643 16.0393 100.116 16.0337 100.535 16.011V18C99.0276 18.17 97.9623 18.0283 97.3389 17.575C96.7269 17.1217 96.4209 16.3113 96.4209 15.144V11.608H94.9419V9.5H96.4209V7.783L98.6139 7.12V9.5H100.535V11.608Z" fill="white"/>
<path fill-rule="evenodd" clip-rule="evenodd" d="M16 2C10.48 2 6 6.48 6 12C6 17.52 10.48 22 16 22C21.52 22 26 17.52 26 12C26 6.48 21.52 2 16 2ZM11.07 18.28C11.5 17.38 14.12 16.5 16 16.5C17.88 16.5 20.51 17.38 20.93 18.28C19.57 19.36 17.86 20 16 20C14.14 20 12.43 19.36 11.07 18.28ZM22.36 16.83C20.93 15.09 17.46 14.5 16 14.5C14.54 14.5 11.07 15.09 9.64 16.83C8.62 15.49 8 13.82 8 12C8 7.59 11.59 4 16 4C20.41 4 24 7.59 24 12C24 13.82 23.38 15.49 22.36 16.83ZM16 6C14.06 6 12.5 7.56 12.5 9.5C12.5 11.44 14.06 13 16 13C17.94 13 19.5 11.44 19.5 9.5C19.5 7.56 17.94 6 16 6ZM16 11C15.17 11 14.5 10.33 14.5 9.5C14.5 8.67 15.17 8 16 8C16.83 8 17.5 8.67 17.5 9.5C17.5 10.33 16.83 11 16 11Z" fill="white"/>
<mask id="mask0_1_65" style="mask-type:alpha" maskUnits="userSpaceOnUse" x="6" y="2" width="20" height="20">
<path fill-rule="evenodd" clip-rule="evenodd" d="M16 2C10.48 2 6 6.48 6 12C6 17.52 10.48 22 16 22C21.52 22 26 17.52 26 12C26 6.48 21.52 2 16 2ZM11.07 18.28C11.5 17.38 14.12 16.5 16 16.5C17.88 16.5 20.51 17.38 20.93 18.28C19.57 19.36 17.86 20 16 20C14.14 20 12.43 19.36 11.07 18.28ZM22.36 16.83C20.93 15.09 17.46 14.5 16 14.5C14.54 14.5 11.07 15.09 9.64 16.83C8.62 15.49 8 13.82 8 12C8 7.59 11.59 4 16 4C20.41 4 24 7.59 24 12C24 13.82 23.38 15.49 22.36 16.83ZM16 6C14.06 6 12.5 7.56 12.5 9.5C12.5 11.44 14.06 13 16 13C17.94 13 19.5 11.44 19.5 9.5C19.5 7.56 17.94 6 16 6ZM16 11C15.17 11 14.5 10.33 14.5 9.5C14.5 8.67 15.17 8 16 8C16.83 8 17.5 8.67 17.5 9.5C17.5 10.33 16.83 11 16 11Z" fill="white"/>
</mask>
<g mask="url(#mask0_1_65)">
</g>
</g>
<defs>
<filter id="filter0_d_1_65" x="0" y="0" width="104.535" height="32" filterUnits="userSpaceOnUse" color-interpolation-filters="sRGB">
<feFlood flood-opacity="0" result="BackgroundImageFix"/>
<feColorMatrix in="SourceAlpha" type="matrix" values="0 0 0 0 0 0 0 0 0 0 0 0 0 0 0 0 0 0 127 0" result="hardAlpha"/>
<feOffset dy="4"/>
<feGaussianBlur stdDeviation="2"/>
<feComposite in2="hardAlpha" operator="out"/>
<feColorMatrix type="matrix" values="0 0 0 0 0 0 0 0 0 0 0 0 0 0 0 0 0 0 0.25 0"/>
<feBlend mode="normal" in2="BackgroundImageFix" result="effect1_dropShadow_1_65"/>
<feBlend mode="normal" in="SourceGraphic" in2="effect1_dropShadow_1_65" result="shape"/>
</filter>
</defs>
</svg>
